# xmcd
#
# Track frame offsets: 
#        150
#        6550
#        20655
#        35287
#        52817
#        70145
#        84590
#        100055
#        112247
#        124745
#        138157
#        155422
#        170095
#        184085
#        195875
#        206205
#
# Disc length: 2949 seconds
#
# Revision: 3
# Processed by: cddbd v1.5.1PL2 Copyright (c) Steve Scherf et al.
# Submitted via: ExactAudioCopy v0.95b3
#
DISCID=da0b8310
DTITLE=Paquíta La Del Barrio - En Vivo, Desde Su Lugar
DYEAR=1998
DGENRE=Ranchero
TTITLE0=Introducción
TTITLE1=Amor Perdido
TTITLE2=Lámpara Sin Luz
TTITLE3=Callejera
TTITLE4=El Fracaso De Mi Amor
TTITLE5=Hipócrita
TTITLE6=Por Tal Que Seas Felíz
TTITLE7=Cheque En Blanco
TTITLE8=Confesión
TTITLE9=Perdída
TTITLE10=Tres Veces Te Engañé
TTITLE11=Arrástrate
TTITLE12=No Hay Quinto Malo
TTITLE13=Bórrate
TTITLE14=Invítame A Pecar
TTITLE15=Me Saludas A La Tuya
EXTD=
EXTT0=
EXTT1=
EXTT2=
EXTT3=
EXTT4=
EXTT5=
EXTT6=
EXTT7=
EXTT8=
EXTT9=
EXTT10=
EXTT11=
EXTT12=
EXTT13=
EXTT14=
EXTT15=
PLAYORDER=
